<svg id="Ebene_1" data-name="Ebene 1" xmlns="http://www.w3.org/2000/svg" xmlns:xlink="http://www.w3.org/1999/xlink" viewBox="0 0 311.81 70.87"><defs><style>.cls-1{fill:none;}.cls-2{fill:#66696f;}.cls-3{clip-path:url(#clip-path);}.cls-4{fill:#e2001a;}</style><clipPath id="clip-path"><rect class="cls-1" x="104.73" y="25.65" width="102.35" height="19.57"/></clipPath></defs><title>Zeichenfläche 2</title><polygon class="cls-2" points="109.84 45.22 104.73 45.22 104.73 25.66 111.65 25.66 120.72 39.17 129.26 25.66 136.45 25.66 136.45 40.34 136.45 45.22 131.41 45.22 131.41 30.84 122.33 45.22 118.98 45.22 109.84 30.84 109.84 45.22"/><path class="cls-2" d="M140,30.54a4.24,4.24,0,0,1,1.85-3.45,7.14,7.14,0,0,1,4.5-1.43h25.37v5.18H145.08v2.35h20.29a8.89,8.89,0,0,1,4.79,1,4,4,0,0,1,1.6,3.6V40a4.45,4.45,0,0,1-1.82,3.88,7.62,7.62,0,0,1-4.57,1.3H140V40h26.48V37.83H146.36a8.43,8.43,0,0,1-4.57-1.21A4.06,4.06,0,0,1,140,33.19V30.54Z"/><g class="cls-3"><path class="cls-2" d="M202.63,39.91h4.43v5.31H181.7a7.14,7.14,0,0,1-4.5-1.43,4.24,4.24,0,0,1-1.85-3.45V33.05h31.71v4.64H180.39v2.22h22.24Z"/><path class="cls-4" d="M175.37,30.82v-.3a4.23,4.23,0,0,1,1.84-3.44,7.16,7.16,0,0,1,4.5-1.43h25.37v5.17H175.37Z"/></g></svg>